<svg xmlns="http://www.w3.org/2000/svg" width="1000" height="1125"><svg viewBox="0 0 320 360" data-background-color="#ffffff" height="1125" width="1000" xmlns="http://www.w3.org/2000/svg" xmlns:xlink="http://www.w3.org/1999/xlink"><svg viewBox="0 0 320 360" height="360" width="320"><svg/><svg viewBox="0 0 320 360" height="360" width="320"><path xmlns="http://www.w3.org/2000/svg" d="M320 187.111c0-45.764-20.238-86.866-52.203-114.908C239.754 40.239 198.652 20 152.889 20 68.587 20 0 88.587 0 172.889c0 45.753 20.231 86.848 52.185 114.891C80.228 319.755 121.337 340 167.111 340c.299 0 .59-.021.889-.021.299 0 .59.021.889.021C252.345 340 320 272.345 320 188.889c0-.299-.021-.59-.021-.889 0-.299.021-.59.021-.889zM59.833 263.097C44.74 241.842 35.762 215.954 35.577 188 36.057 115.072 95.069 56.057 168 55.577c27.954.185 53.845 9.163 75.097 24.256 24.366 23.627 39.57 56.64 39.57 93.056 0 71.559-58.219 129.778-129.778 129.778-36.416 0-69.429-15.204-93.056-39.57zM3.556 172.889c0-82.343 66.99-149.333 149.333-149.333 35.051 0 67.292 12.167 92.8 32.462-22.98-13.824-49.863-21.796-78.578-21.796-84.302 0-152.889 68.587-152.889 152.889 0 28.708 7.968 55.584 21.785 78.56-20.288-25.5-32.452-57.739-32.451-92.782zm163.555 145.778c-35.84 0-68.363-14.418-92.107-37.743 21.952 15.89 48.864 25.298 77.885 25.298 73.522 0 133.333-59.812 133.333-133.333 0-29.02-9.408-55.932-25.298-77.885 23.324 23.744 37.742 56.267 37.743 92.107 0 72.54-59.015 131.556-131.556 131.556z" fill="#ed2647" font-family="none" font-weight="none" font-size="none" text-anchor="none" style="mix-blend-mode:normal" data-fill-palette-color="tertiary"/><svg viewBox="0 0 192 111.605" height="111.605" width="192" transform="translate(64 124.197)"><svg viewBox="0 0 192 111.605" height="111.605" width="192"><svg viewBox="0 0 192 111.605" height="111.605" width="192"><svg viewBox="0 0 192 111.605" height="111.605" width="192"><svg viewBox="0 0 192 111.605" height="111.605" width="192"><svg viewBox="0 0 192 111.605" height="111.605" width="192"><svg width="192" viewBox="5 -39.55 68.9 40.05" height="111.605" data-palette-color="#ed2647"><path d="M6.95 0q-.85 0-1.4-.55Q5-1.1 5-1.95V-37.1q0-.85.55-1.4.55-.55 1.4-.55h9.35q3.65 0 6.5 1.53 2.85 1.52 4.48 4.25Q28.9-30.55 28.9-27q0 3.4-1.62 6.05-1.63 2.65-4.48 4.15-2.85 1.5-6.5 1.5H8.9v13.35q0 .85-.55 1.4Q7.8 0 6.95 0Zm20.9 0q-.65 0-1.02-.25-.38-.25-.68-.75l-9.6-15.3 3.9-1L29.4-3q.75 1.2.28 2.1-.48.9-1.83.9ZM8.9-35.3v16.25h7.4q2.55 0 4.53-1.03 1.97-1.02 3.12-2.82 1.15-1.8 1.15-4.1 0-2.45-1.15-4.33-1.15-1.87-3.12-2.92-1.98-1.05-4.53-1.05H8.9ZM53.95.5q-4.35 0-8-1.5-3.65-1.5-6.33-4.2-2.67-2.7-4.15-6.35-1.47-3.65-1.47-8 0-4.3 1.47-7.95 1.48-3.65 4.15-6.35 2.68-2.7 6.33-4.2t8-1.5q4.3 0 7.95 1.5 3.65 1.5 6.35 4.2 2.7 2.7 4.17 6.35 1.48 3.65 1.48 7.95 0 4.35-1.48 8-1.47 3.65-4.17 6.35-2.7 2.7-6.35 4.2Q58.25.5 53.95.5Zm0-3.7q3.45 0 6.4-1.22 2.95-1.23 5.12-3.46 2.18-2.22 3.38-5.2 1.2-2.97 1.2-6.47 0-3.45-1.2-6.43-1.2-2.97-3.38-5.2-2.17-2.22-5.12-3.45-2.95-1.22-6.4-1.22-3.5 0-6.45 1.22-2.95 1.23-5.13 3.45-2.17 2.23-3.37 5.2-1.2 2.98-1.2 6.43 0 3.5 1.2 6.47 1.2 2.98 3.37 5.2 2.18 2.23 5.13 3.46 2.95 1.22 6.45 1.22Z" fill="#ed2647" class="undefined-text-0" data-fill-palette-color="primary"/></svg></svg></svg></svg></svg></svg></svg></svg></svg></svg></svg>