<svg xmlns="http://www.w3.org/2000/svg" version="1.1" xmlns:xlink="http://www.w3.org/1999/xlink" xmlns:svgjs="http://svgjs.dev/svgjs" width="1000" height="1125" viewBox="0 0 1000 1125"><g transform="matrix(1,0,0,1,0,0)"><svg viewBox="0 0 320 360" data-background-color="#ffffff" preserveAspectRatio="xMidYMid meet" height="1125" width="1000" xmlns="http://www.w3.org/2000/svg" xmlns:xlink="http://www.w3.org/1999/xlink"><g id="tight-bounds" transform="matrix(1,0,0,1,0,0)"><svg viewBox="0 0 320 360" height="360" width="320"><g><svg></svg></g><g><svg viewBox="0 0 320 360" height="360" width="320"><g><path xmlns="http://www.w3.org/2000/svg" d="M320 187.111c0-45.764-20.238-86.866-52.203-114.908-28.043-31.964-69.145-52.203-114.908-52.203-84.302 0-152.889 68.587-152.889 152.889 0 45.753 20.231 86.848 52.185 114.891 28.043 31.975 69.152 52.22 114.926 52.22 0.299 0 0.59-0.021 0.889-0.021 0.299 0 0.59 0.021 0.889 0.021 83.456 0 151.111-67.655 151.111-151.111 0-0.299-0.021-0.59-0.021-0.889 0-0.299 0.021-0.59 0.021-0.889zM59.833 263.097c-15.093-21.255-24.071-47.143-24.256-75.097 0.48-72.928 59.492-131.943 132.423-132.423 27.954 0.185 53.845 9.163 75.097 24.256 24.366 23.627 39.57 56.64 39.57 93.056 0 71.559-58.219 129.778-129.778 129.778-36.416 0-69.429-15.204-93.056-39.57zM3.556 172.889c0-82.343 66.99-149.333 149.333-149.333 35.051 0 67.292 12.167 92.8 32.462-22.98-13.824-49.863-21.796-78.578-21.796-84.302 0-152.889 68.587-152.889 152.889 0 28.708 7.968 55.584 21.785 78.56-20.288-25.5-32.452-57.739-32.451-92.782zM167.111 318.667c-35.84 0-68.363-14.418-92.107-37.743 21.952 15.89 48.864 25.298 77.885 25.298 73.522 0 133.333-59.812 133.333-133.333 0-29.02-9.408-55.932-25.298-77.885 23.324 23.744 37.742 56.267 37.743 92.107 0 72.54-59.015 131.556-131.556 131.556z" fill="#ed2647" fill-rule="nonzero" stroke="none" stroke-width="1" stroke-linecap="butt" stroke-linejoin="miter" stroke-miterlimit="10" stroke-dasharray="" stroke-dashoffset="0" font-family="none" font-weight="none" font-size="none" text-anchor="none" style="mix-blend-mode: normal" data-fill-palette-color="tertiary"></path></g><g transform="matrix(1,0,0,1,64,124.19738751814222)"><svg viewBox="0 0 192 111.60522496371554" height="111.60522496371554" width="192"><g><svg viewBox="0 0 192 111.60522496371554" height="111.60522496371554" width="192"><g><svg viewBox="0 0 192 111.60522496371554" height="111.60522496371554" width="192"><g><svg viewBox="0 0 192 111.60522496371554" height="111.60522496371554" width="192"><g id="textblocktransform"><svg viewBox="0 0 192 111.60522496371554" height="111.60522496371554" width="192" id="textblock"><g><svg viewBox="0 0 192 111.60522496371554" height="111.60522496371554" width="192"><g transform="matrix(1,0,0,1,0,0)"><svg width="192" viewBox="5 -39.54999923706055 68.9000015258789 40.04999923706055" height="111.60522496371554" data-palette-color="#ed2647"><path d="M6.95 0L6.95 0Q6.1 0 5.55-0.55 5-1.1 5-1.95L5-1.95 5-37.1Q5-37.95 5.55-38.5 6.1-39.05 6.95-39.05L6.95-39.05 16.3-39.05Q19.95-39.05 22.8-37.52 25.65-36 27.28-33.27 28.9-30.55 28.9-27L28.9-27Q28.9-23.6 27.28-20.95 25.65-18.3 22.8-16.8 19.95-15.3 16.3-15.3L16.3-15.3 8.9-15.3 8.9-1.95Q8.9-1.1 8.35-0.55 7.8 0 6.95 0ZM27.85 0L27.85 0Q27.2 0 26.83-0.25 26.45-0.5 26.15-1L26.15-1 16.55-16.3 20.45-17.3 29.4-3Q30.15-1.8 29.68-0.9 29.2 0 27.85 0ZM8.9-35.3L8.9-19.05 16.3-19.05Q18.85-19.05 20.83-20.08 22.8-21.1 23.95-22.9 25.1-24.7 25.1-27L25.1-27Q25.1-29.45 23.95-31.33 22.8-33.2 20.83-34.25 18.85-35.3 16.3-35.3L16.3-35.3 8.9-35.3ZM53.95 0.5L53.95 0.5Q49.6 0.5 45.95-1 42.3-2.5 39.62-5.2 36.95-7.9 35.47-11.55 34-15.2 34-19.55L34-19.55Q34-23.85 35.47-27.5 36.95-31.15 39.62-33.85 42.3-36.55 45.95-38.05 49.6-39.55 53.95-39.55L53.95-39.55Q58.25-39.55 61.9-38.05 65.55-36.55 68.25-33.85 70.95-31.15 72.42-27.5 73.9-23.85 73.9-19.55L73.9-19.55Q73.9-15.2 72.42-11.55 70.95-7.9 68.25-5.2 65.55-2.5 61.9-1 58.25 0.5 53.95 0.5ZM53.95-3.2L53.95-3.2Q57.4-3.2 60.35-4.42 63.3-5.65 65.47-7.88 67.65-10.1 68.85-13.08 70.05-16.05 70.05-19.55L70.05-19.55Q70.05-23 68.85-25.98 67.65-28.95 65.47-31.18 63.3-33.4 60.35-34.63 57.4-35.85 53.95-35.85L53.95-35.85Q50.45-35.85 47.5-34.63 44.55-33.4 42.37-31.18 40.2-28.95 39-25.98 37.8-23 37.8-19.55L37.8-19.55Q37.8-16.05 39-13.08 40.2-10.1 42.37-7.88 44.55-5.65 47.5-4.42 50.45-3.2 53.95-3.2Z" opacity="1" transform="matrix(1,0,0,1,0,0)" fill="#ed2647" class="undefined-text-0" data-fill-palette-color="primary" id="text-0"></path></svg></g></svg></g></svg></g></svg></g><g></g></svg></g></svg></g></svg></g></svg></g><defs></defs></svg><rect width="320" height="360" fill="none" stroke="none" visibility="hidden"></rect></g></svg></g></svg>